<svg width="122" height="127" viewBox="0 0 122 127" fill="none" xmlns="http://www.w3.org/2000/svg">
<rect x="0.5" y="0.5" width="121" height="126" rx="23.5" fill="#0A66C2"/>
<rect x="0.5" y="0.5" width="121" height="126" rx="23.5" stroke="#0A66C2"/>
<path d="M17.125 72V54.5455H21.8636V68.1818H28.9205V72H17.125ZM29.4641 72V58.9091H34.1687V72H29.4641ZM31.8164 57.5455C31.18 57.5455 30.6346 57.3352 30.18 56.9148C29.7255 56.4943 29.4982 55.9886 29.4982 55.3977C29.4982 54.8068 29.7255 54.3011 30.18 53.8807C30.6346 53.4602 31.18 53.25 31.8164 53.25C32.4584 53.25 33.0039 53.4602 33.4528 53.8807C33.9073 54.3011 34.1346 54.8068 34.1346 55.3977C34.1346 55.9886 33.9073 56.4943 33.4528 56.9148C33.0039 57.3352 32.4584 57.5455 31.8164 57.5455ZM39.8302 64.6364V72H35.1257V58.9091H39.5916V61.3977H39.728C40.012 60.5682 40.512 59.9176 41.228 59.446C41.9495 58.9744 42.7905 58.7386 43.7507 58.7386C44.6768 58.7386 45.4808 58.9517 46.1626 59.3778C46.8501 59.7983 47.3814 60.3778 47.7564 61.1165C48.137 61.8551 48.3245 62.6989 48.3189 63.6477V72H43.6143V64.6364C43.62 63.9886 43.4552 63.4801 43.12 63.1108C42.7905 62.7415 42.3302 62.5568 41.7393 62.5568C41.353 62.5568 41.0149 62.642 40.7251 62.8125C40.441 62.9773 40.2223 63.2159 40.0689 63.5284C39.9155 63.8352 39.8359 64.2045 39.8302 64.6364ZM53.4286 68.8977L53.4627 63.3068H54.0763L57.2468 58.9091H62.5309L57.2127 65.7614H55.8831L53.4286 68.8977ZM49.2013 72V54.5455H53.9059V72H49.2013ZM57.2809 72L54.2809 66.8182L57.349 63.4773L62.6672 72H57.2809Z" fill="white"/>
<rect x="67" y="44" width="40" height="39" rx="6" fill="white"/>
<path d="M76.1703 70V55.4545H86.6533V58.6364H80.1192V61.1364H86.1135V64.3182H80.1192V66.8182H86.6249V70H76.1703ZM84.8151 55.4545H89.2185L92.0594 61.3636H92.1731L95.014 55.4545H99.4174L94.0765 65.4261V70H90.156V65.4261L84.8151 55.4545Z" fill="#0A66C2"/>
</svg>
